<svg width="248" height="117" viewBox="0 0 248 117" fill="none" xmlns="http://www.w3.org/2000/svg">
<path d="M0 80.213C0 78.0039 1.79086 76.213 4 76.213H36C38.2091 76.213 40 78.0039 40 80.213V88.213H0V80.213Z" fill="#BFDAFF"/>
<rect y="88.213" width="40" height="9.27841" fill="#68A8FF"/>
<rect y="97.4914" width="40" height="18.5568" fill="#2F80ED"/>
<path d="M52 48.621C52 46.4119 53.7909 44.621 56 44.621H88C90.2091 44.621 92 46.4119 92 48.621V52.8966H52V48.621Z" fill="#BFDAFF"/>
<rect x="52" y="52.8966" width="40" height="17.1517" fill="#68A8FF"/>
<rect x="52" y="70.0482" width="40" height="46" fill="#2F80ED"/>
<path d="M104 30.94C104 28.7309 105.791 26.94 108 26.94H140C142.209 26.94 144 28.7309 144 30.94V54.94H104V30.94Z" fill="#BFDAFF"/>
<rect x="104" y="54.94" width="40" height="21.0103" fill="#68A8FF"/>
<rect x="104" y="75.9503" width="40" height="40.2062" fill="#2F80ED"/>
<path d="M156 11.9109C156 9.70176 157.791 7.9109 160 7.9109H192C194.209 7.9109 196 9.70177 196 11.9109V19.303H156V11.9109Z" fill="#BFDAFF"/>
<rect x="156" y="19.303" width="40" height="46.7453" fill="#2F80ED"/>
<rect x="156" y="66.0482" width="40" height="50" fill="#68A8FF"/>
<path d="M217 32.7539C217 30.5448 218.791 28.7539 221 28.7539H244C246.209 28.7539 248 30.5448 248 32.7539V45.7539H217V32.7539Z" fill="#BFDAFF"/>
<rect x="217" y="45.7539" width="31" height="50" fill="#2F80ED"/>
<rect x="216.8" y="95.7539" width="31.2" height="20.2944" fill="#68A8FF"/>
</svg>
