<svg width="25" height="24" viewBox="0 0 25 24" fill="none" xmlns="http://www.w3.org/2000/svg">
<g id="vuesax/linear/more">
<g id="more">
<path id="Vector" d="M14.3333 5C14.3333 3.9 13.4333 3 12.3333 3C11.2333 3 10.3333 3.9 10.3333 5C10.3333 6.1 11.2333 7 12.3333 7C13.4333 7 14.3333 6.1 14.3333 5Z" fill="black"/>
<path id="Vector_2" d="M14.3333 19C14.3333 17.9 13.4333 17 12.3333 17C11.2333 17 10.3333 17.9 10.3333 19C10.3333 20.1 11.2333 21 12.3333 21C13.4333 21 14.3333 20.1 14.3333 19Z" fill="black"/>
<path id="Vector_3" d="M14.3333 12C14.3333 10.9 13.4333 10 12.3333 10C11.2333 10 10.3333 10.9 10.3333 12C10.3333 13.1 11.2333 14 12.3333 14C13.4333 14 14.3333 13.1 14.3333 12Z" fill="black"/>
</g>
</g>
</svg>
