<svg width="14" height="16" viewBox="0 0 14 16" fill="none" xmlns="http://www.w3.org/2000/svg">
<path id="Vector" d="M8.15333 13.7667C8.03613 13.9688 7.86789 14.1365 7.66548 14.2531C7.46307 14.3697 7.23359 14.431 7 14.431C6.76641 14.431 6.53693 14.3697 6.33452 14.2531C6.1321 14.1365 5.96387 13.9688 5.84667 13.7667M11 5.10005C11 4.03919 10.5786 3.02177 9.82843 2.27162C9.07828 1.52148 8.06087 1.10005 7 1.10005C5.93913 1.10005 4.92172 1.52148 4.17157 2.27162C3.42143 3.02177 3 4.03919 3 5.10005C3 9.76672 1 11.1001 1 11.1001H13C13 11.1001 11 9.76672 11 5.10005Z" stroke="black" stroke-width="1.33333" stroke-linecap="round" stroke-linejoin="round"/>
</svg>
