<svg width="16" height="17" viewBox="0 0 16 17" fill="none" xmlns="http://www.w3.org/2000/svg">
<path d="M8 10.5C9.10457 10.5 10 9.60457 10 8.5C10 7.39543 9.10457 6.5 8 6.5C6.89543 6.5 6 7.39543 6 8.5C6 9.60457 6.89543 10.5 8 10.5Z" stroke="#202020" stroke-width="1.5" stroke-miterlimit="10" stroke-linecap="round" stroke-linejoin="round"/>
<path d="M1.33331 9.08667V7.91333C1.33331 7.22 1.89998 6.64667 2.59998 6.64667C3.80665 6.64667 4.29998 5.79333 3.69331 4.74667C3.34665 4.14667 3.55331 3.36667 4.15998 3.02L5.31331 2.36C5.83998 2.04666 6.51998 2.23333 6.83331 2.76L6.90665 2.88666C7.50665 3.93333 8.49331 3.93333 9.09998 2.88666L9.17331 2.76C9.48665 2.23333 10.1666 2.04666 10.6933 2.36L11.8466 3.02C12.4533 3.36667 12.66 4.14667 12.3133 4.74667C11.7066 5.79333 12.2 6.64667 13.4066 6.64667C14.1 6.64667 14.6733 7.21333 14.6733 7.91333V9.08667C14.6733 9.78 14.1066 10.3533 13.4066 10.3533C12.2 10.3533 11.7066 11.2067 12.3133 12.2533C12.66 12.86 12.4533 13.6333 11.8466 13.98L10.6933 14.64C10.1666 14.9533 9.48665 14.7667 9.17331 14.24L9.09998 14.1133C8.49998 13.0667 7.51331 13.0667 6.90665 14.1133L6.83331 14.24C6.51998 14.7667 5.83998 14.9533 5.31331 14.64L4.15998 13.98C3.55331 13.6333 3.34665 12.8533 3.69331 12.2533C4.29998 11.2067 3.80665 10.3533 2.59998 10.3533C1.89998 10.3533 1.33331 9.78 1.33331 9.08667Z" stroke="#202020" stroke-width="1.5" stroke-miterlimit="10" stroke-linecap="round" stroke-linejoin="round"/>
</svg>
