<svg width="15" height="15" viewBox="0 0 15 15" fill="none" xmlns="http://www.w3.org/2000/svg">
<path d="M7.66667 14.1667C11.3486 14.1667 14.3333 11.1819 14.3333 7.5C14.3333 3.8181 11.3486 0.833336 7.66667 0.833336C3.98477 0.833336 1 3.8181 1 7.5C1 11.1819 3.98477 14.1667 7.66667 14.1667Z" stroke="black" stroke-width="1.33333" stroke-linecap="round" stroke-linejoin="round"/>
<path d="M7.66667 11.5C9.87581 11.5 11.6667 9.70914 11.6667 7.5C11.6667 5.29086 9.87581 3.5 7.66667 3.5C5.45753 3.5 3.66667 5.29086 3.66667 7.5C3.66667 9.70914 5.45753 11.5 7.66667 11.5Z" stroke="black" stroke-width="1.33333" stroke-linecap="round" stroke-linejoin="round"/>
<path d="M7.66667 8.83334C8.40305 8.83334 9 8.23638 9 7.5C9 6.76362 8.40305 6.16667 7.66667 6.16667C6.93029 6.16667 6.33333 6.76362 6.33333 7.5C6.33333 8.23638 6.93029 8.83334 7.66667 8.83334Z" stroke="black" stroke-width="1.33333" stroke-linecap="round" stroke-linejoin="round"/>
</svg>
