<svg width="15" height="13" viewBox="0 0 15 13" fill="none" xmlns="http://www.w3.org/2000/svg">
<path d="M14.3333 6.5H10.3333L9 8.50001H6.33333L5 6.5H1M14.3333 6.5V10.5C14.3333 10.8536 14.1929 11.1928 13.9428 11.4428C13.6928 11.6929 13.3536 11.8333 13 11.8333H2.33333C1.97971 11.8333 1.64057 11.6929 1.39052 11.4428C1.14048 11.1928 1 10.8536 1 10.5V6.5M14.3333 6.5L12.0333 1.90667C11.9229 1.68453 11.7528 1.49759 11.542 1.36686C11.3312 1.23613 11.0881 1.1668 10.84 1.16667H4.49333C4.24528 1.1668 4.00218 1.23613 3.79136 1.36686C3.58055 1.49759 3.41038 1.68453 3.3 1.90667L1 6.5" stroke="black" stroke-width="1.33333" stroke-linecap="round" stroke-linejoin="round"/>
</svg>
