<svg width="16" height="16" viewBox="0 0 16 16" fill="none" xmlns="http://www.w3.org/2000/svg">
<path id="Vector" d="M14.1401 10.3604C13.716 11.3634 13.0526 12.2472 12.208 12.9346C11.3634 13.622 10.3633 14.092 9.29508 14.3036C8.22686 14.5152 7.12307 14.4618 6.08022 14.1483C5.03737 13.8347 4.08721 13.2705 3.31281 12.5049C2.5384 11.7392 1.96334 10.7956 1.63788 9.75638C1.31243 8.71718 1.2465 7.61408 1.44586 6.54351C1.64522 5.47294 2.10379 4.4675 2.78149 3.6151C3.45919 2.76271 4.33538 2.0893 5.33346 1.65375M14.6668 7.76708C14.6668 6.89161 14.4944 6.0247 14.1593 5.21586C13.8243 4.40702 13.3332 3.6721 12.7142 3.05304C12.0951 2.43398 11.3602 1.94292 10.5514 1.60789C9.74251 1.27286 8.87561 1.10042 8.00013 1.10042V7.76708H14.6668Z" stroke="black" stroke-width="1.33333" stroke-linecap="round" stroke-linejoin="round"/>
</svg>
